<?xml version="1.0" standalone="no"?>
<!DOCTYPE svg PUBLIC "-//W3C//DTD SVG 20010904//EN"
 "http://www.w3.org/TR/2001/REC-SVG-20010904/DTD/svg10.dtd">
<svg version="1.0" xmlns="http://www.w3.org/2000/svg"
 width="700.000000pt" height="700.000000pt" viewBox="0 0 700.000000 700.000000"
 preserveAspectRatio="xMidYMid meet">
<metadata>
Created by potrace 1.14, written by Peter Selinger 2001-2017
</metadata>
<g transform="translate(0.000000,700.000000) scale(0.100000,-0.100000)"
fill="#000000" stroke="none">
<path d="M267 6752 c-23 -25 -22 -84 3 -191 10 -47 33 -192 50 -321 17 -129
33 -242 35 -250 10 -37 48 -499 60 -745 3 -60 8 -128 10 -150 3 -22 1 -46 -3
-52 -4 -7 -71 -26 -149 -43 -160 -34 -191 -44 -199 -64 -8 -21 34 -167 54
-189 13 -14 28 -18 65 -15 l49 3 20 -55 c16 -43 38 -72 101 -133 l80 -79 9
-136 c10 -137 -1 -475 -22 -657 -13 -115 -37 -350 -101 -990 -17 -170 -33
-330 -35 -355 -2 -25 -8 -79 -14 -120 -5 -41 -12 -104 -15 -140 -16 -169 -78
-611 -100 -722 -14 -67 -22 -131 -19 -141 3 -10 17 -22 31 -28 58 -22 398 -6
763 36 132 15 173 22 410 65 137 26 125 34 174 -120 48 -150 78 -335 78 -495
0 -135 -17 -230 -71 -384 -23 -65 -17 -88 30 -116 68 -40 629 -31 710 11 50
25 72 63 66 117 -5 57 -41 100 -115 138 -41 21 -61 24 -152 24 -58 0 -121 -3
-140 -6 l-35 -7 0 207 c0 158 -4 228 -18 301 -27 140 -75 327 -96 375 l-19 43
189 62 c103 34 193 68 200 76 7 8 14 68 17 144 3 72 8 132 11 134 3 2 80 -16
171 -40 91 -24 226 -60 300 -79 74 -20 138 -39 141 -43 3 -4 17 -34 32 -67 58
-133 96 -449 77 -628 -15 -134 -43 -278 -75 -384 -29 -93 -27 -126 6 -144 41
-22 339 -60 474 -61 147 -1 197 12 240 64 50 59 22 150 -61 195 -54 30 -168
53 -264 53 -43 0 -81 4 -84 8 -3 5 1 26 9 48 21 62 34 181 41 367 6 149 4 187
-15 288 -11 64 -35 156 -52 204 -16 48 -28 89 -25 92 11 11 414 95 761 158
623 113 745 142 745 176 0 37 -214 470 -435 879 -196 364 -255 465 -355 614
-49 75 -90 142 -90 150 0 36 214 173 355 227 87 34 105 45 105 65 0 19 -102
125 -149 154 -44 27 -50 40 -26 60 9 7 29 30 46 51 40 51 33 73 -32 96 -45 16
-49 20 -44 44 11 49 -14 52 -307 45 -145 -4 -290 -9 -324 -12 l-60 -6 -57 71
c-31 38 -57 73 -57 76 0 19 77 113 170 209 171 176 371 322 585 426 252 124
396 148 465 78 37 -37 38 -53 3 -75 -23 -15 -59 -19 -228 -23 -218 -6 -250
-14 -273 -65 -17 -37 -15 -49 14 -80 14 -15 22 -31 17 -35 -4 -4 -48 -20 -97
-35 -145 -46 -198 -114 -126 -165 24 -17 28 -25 21 -43 -20 -54 44 -97 144
-97 49 0 57 -3 67 -25 33 -72 225 -46 323 44 17 15 67 49 113 77 221 130 345
309 346 499 0 58 -5 81 -28 128 -33 69 -92 128 -161 165 -46 25 -59 27 -170
27 -290 0 -607 -126 -930 -369 -154 -116 -327 -285 -411 -402 -18 -25 -23 -27
-35 -14 -8 8 -38 40 -67 71 l-52 56 59 37 c146 90 241 261 241 436 0 74 1 76
30 94 49 28 63 57 51 103 -15 55 -32 74 -66 75 -37 1 -100 -12 -370 -77 -139
-34 -384 -85 -404 -85 -21 0 -101 74 -101 94 0 4 11 17 25 28 41 32 32 41 -33
34 l-59 -7 -114 103 c-342 309 -622 513 -1080 785 -275 164 -406 227 -559 269
-106 29 -190 31 -213 6z m153 -48 c118 -17 340 -124 660 -317 258 -156 435
-274 591 -393 174 -133 424 -347 411 -352 -7 -2 -31 10 -54 27 -23 17 -51 31
-63 31 -32 0 -65 -36 -65 -70 0 -38 27 -65 99 -98 47 -22 71 -26 149 -27 l92
0 37 -38 c24 -23 34 -40 28 -46 -9 -8 -167 -40 -609 -125 -70 -13 -133 -22
-140 -19 -14 6 -190 273 -194 294 -2 10 15 30 40 50 24 19 48 38 54 44 6 5 70
55 142 110 77 58 127 104 122 109 -8 8 -71 -34 -113 -76 -10 -10 -21 -18 -26
-18 -4 0 -21 -12 -37 -26 -16 -14 -45 -37 -64 -52 -19 -15 -59 -46 -88 -70
-59 -47 -63 -46 -103 9 -13 18 -17 34 -12 43 4 8 41 39 81 71 40 31 70 61 67
66 -3 5 0 6 7 4 8 -3 51 23 95 58 61 48 79 67 70 76 -6 6 -16 11 -23 11 -6 0
-14 7 -18 15 -8 23 -36 18 -36 -6 0 -18 -4 -20 -25 -15 -28 7 -33 -5 -10 -24
22 -18 18 -48 -7 -56 -17 -5 -28 1 -50 27 -64 75 -138 180 -138 194 0 18 32
20 62 4 15 -8 19 -8 14 0 -4 6 -21 18 -37 27 -28 14 -32 13 -60 -7 -23 -16
-27 -24 -19 -34 9 -10 7 -12 -7 -9 -12 3 -47 -18 -100 -61 -46 -36 -87 -65
-91 -65 -15 0 -73 80 -78 106 -3 14 -1 23 4 20 5 -3 36 15 68 41 32 25 76 57
98 70 26 17 35 28 28 35 -11 11 -62 -17 -62 -33 0 -5 -6 -9 -12 -9 -7 0 -40
-23 -73 -50 -65 -54 -87 -60 -108 -30 -65 93 -431 460 -459 460 -17 0 8 -31
128 -153 172 -175 215 -225 414 -482 264 -343 485 -657 477 -679 -3 -7 -31
-17 -63 -24 -305 -59 -617 -125 -828 -173 -49 -11 -92 -17 -96 -12 -4 4 -15
134 -24 288 -17 275 -51 627 -82 835 -51 350 -64 428 -73 453 -15 38 -14 74 2
80 6 3 23 4 37 2 14 -2 45 -7 70 -11z m789 -703 c15 -11 39 -23 54 -26 15 -4
27 -11 27 -16 0 -5 4 -9 10 -9 21 0 140 -61 140 -72 0 -16 -30 -48 -46 -48 -7
0 -14 -6 -17 -12 -4 -10 -7 -10 -18 0 -11 10 -10 12 4 12 9 0 17 5 17 10 0 14
-43 13 -58 -2 -17 -17 -15 -58 4 -65 11 -4 3 -11 -26 -24 -52 -23 -50 -23 -50
2 0 11 -4 17 -10 14 -5 -3 -7 0 -4 9 4 12 -46 149 -76 207 -5 10 -4 21 3 28
14 14 14 14 46 -8z m51 -1 c0 -5 -2 -10 -4 -10 -3 0 -8 5 -11 10 -3 6 -1 10 4
10 6 0 11 -4 11 -10z m85 -201 c11 -17 -1 -21 -15 -4 -8 9 -8 15 -2 15 6 0 14
-5 17 -11z m3108 -350 c72 -18 135 -72 168 -145 18 -39 29 -80 29 -107 0 -56
-35 -159 -75 -222 -53 -83 -178 -194 -263 -233 -20 -9 -57 -34 -82 -56 -54
-46 -111 -72 -177 -81 -45 -6 -47 -5 -28 10 68 54 215 210 215 229 0 17 -41 2
-76 -27 -71 -60 -192 -134 -239 -146 -46 -12 -110 -6 -120 10 -7 10 42 36 123
65 115 41 262 148 236 174 -10 10 -16 7 -100 -44 -70 -44 -235 -96 -278 -89
-62 10 -38 24 169 97 124 44 205 87 205 109 0 9 -25 12 -89 12 -99 0 -131 13
-95 40 14 10 47 14 119 15 256 1 299 4 336 28 42 25 64 70 55 107 -9 34 -59
90 -100 109 -47 22 -145 20 -243 -4 -319 -81 -767 -396 -988 -694 l-28 -39
-38 44 c-21 24 -39 51 -39 60 -1 60 270 329 475 471 324 225 726 358 928 307z
m-1873 -69 c0 -6 -4 -18 -9 -28 -5 -9 -16 -37 -24 -62 -26 -79 -42 -117 -56
-134 -7 -9 -11 -16 -8 -16 5 0 -12 -58 -30 -100 -3 -8 -8 -23 -9 -32 -2 -9
-16 -43 -30 -75 -28 -60 -31 -66 -33 -83 0 -5 -10 -10 -21 -10 -29 0 -26 46 4
91 14 20 24 45 24 55 -2 25 50 160 68 179 8 8 13 18 12 22 -3 15 21 88 36 108
9 11 16 26 16 33 1 34 60 86 60 52z m-1200 -240 c0 -5 -4 -10 -10 -10 -5 0
-10 5 -10 10 0 6 5 10 10 10 6 0 10 -4 10 -10z m564 -88 c74 -144 208 -250
354 -281 122 -25 320 -8 447 40 l60 22 108 -114 c116 -122 287 -334 287 -356
0 -7 -6 -13 -13 -13 -45 0 -268 -33 -371 -56 l-122 -26 -38 26 c-46 31 -109
35 -146 9 -64 -43 -143 -120 -161 -156 -31 -60 -28 -127 10 -218 l32 -75 -24
-75 c-37 -111 -58 -160 -69 -157 -5 2 -20 30 -33 63 -125 315 -171 430 -221
549 -55 133 -57 140 -38 150 49 28 112 103 133 161 24 64 20 90 -15 90 -13 0
-25 -17 -42 -62 -15 -41 -37 -74 -63 -97 -47 -43 -64 -45 -77 -8 -23 62 -104
230 -137 286 -32 54 -121 254 -139 313 -8 25 -13 22 104 47 36 8 81 14 100 15
34 1 36 -2 74 -77z m-593 31 c-12 -20 -14 -14 -5 12 4 9 9 14 11 11 3 -2 0
-13 -6 -23z m-327 -40 c-9 -21 -22 -43 -30 -49 -10 -8 -11 -13 -4 -16 11 -3
-18 -74 -66 -158 -7 -14 -14 -33 -14 -42 0 -10 -4 -18 -9 -18 -5 0 -11 -15
-15 -32 -6 -30 -18 -59 -67 -164 -10 -23 -19 -46 -19 -53 0 -6 -9 -11 -20 -11
-11 0 -20 2 -20 5 0 5 36 98 55 140 7 17 21 53 31 80 20 53 150 322 166 343
21 25 27 11 12 -25z m596 17 c0 -6 22 -61 49 -123 28 -62 53 -130 57 -151 6
-35 5 -38 -11 -33 -22 9 -65 -37 -84 -89 -33 -94 -29 -89 -51 -69 -12 11 -26
14 -39 10 -18 -5 -21 -15 -21 -58 0 -63 -30 -121 -79 -154 -50 -34 -63 -31
-55 15 23 134 50 209 105 292 52 77 80 167 86 278 5 81 8 92 24 92 11 0 19 -5
19 -10z m-795 -67 c-9 -21 -21 -46 -26 -55 -5 -10 -9 -24 -9 -32 0 -8 -13 -44
-30 -79 -16 -36 -30 -68 -30 -72 0 -16 -44 -99 -47 -88 -2 6 6 33 17 60 12 26
26 57 31 68 4 11 18 49 30 85 25 75 69 164 76 157 2 -3 -3 -23 -12 -44z m918
-290 c3 -10 15 -63 26 -118 12 -55 26 -116 31 -135 13 -49 2 -55 -70 -39 -50
11 -62 17 -67 37 -11 45 12 190 40 250 12 26 34 29 40 5z m-1053 -58 c0 -3 -9
-23 -20 -45 -11 -22 -20 -46 -20 -55 0 -8 -4 -15 -10 -15 -5 0 -10 -7 -10 -15
0 -8 -4 -15 -9 -15 -10 0 15 80 30 95 5 5 9 19 9 32 0 14 6 23 15 23 8 0 15
-2 15 -5z m675 -92 c-17 -70 -34 -176 -40 -263 -6 -97 8 -336 25 -400 5 -19
16 -66 25 -105 18 -77 115 -325 170 -434 41 -83 42 -91 12 -91 -18 0 -29 11
-47 49 -66 142 -260 234 -441 210 -40 -6 -94 -19 -119 -30 -36 -16 -57 -19
-111 -13 -160 16 -221 -70 -151 -209 26 -51 28 -63 24 -139 -5 -93 17 -215 51
-283 51 -103 133 -171 250 -207 57 -17 87 -20 171 -16 92 4 109 8 176 41 112
54 188 134 215 224 l15 50 111 11 112 12 101 -98 c56 -54 116 -104 133 -111
37 -15 36 -12 58 -286 15 -180 19 -683 7 -856 l-4 -66 -52 -21 c-178 -71 -562
-169 -831 -213 -426 -68 -964 -111 -1013 -80 -11 6 -8 34 12 142 43 227 132
980 202 1719 7 80 20 215 29 300 47 474 55 601 54 825 -1 189 1 229 12 227
165 -42 404 -20 659 59 52 17 113 40 135 53 52 32 59 31 50 -1z m524 -137
c-15 -16 -26 5 -33 59 l-6 50 24 -50 c13 -29 20 -54 15 -59z m-305 -87 c-8
-47 8 -121 46 -216 l30 -74 -27 -67 c-21 -54 -26 -85 -27 -162 -1 -84 2 -101
25 -144 25 -48 25 -50 11 -110 -19 -81 -10 -138 34 -212 36 -60 34 -74 -12
-74 -32 0 -124 185 -209 420 -45 126 -70 269 -81 461 -6 121 -6 129 12 135 52
16 93 38 129 68 32 27 43 31 57 22 14 -8 16 -19 12 -47z m237 2 c4 -1 9 -18
12 -38 4 -21 15 -87 27 -148 40 -218 98 -612 106 -722 l7 -82 -29 -6 c-16 -4
-49 -13 -73 -21 -25 -8 -55 -14 -67 -14 -29 0 -87 67 -102 119 -16 51 -15 71
5 145 l16 62 -29 50 c-25 43 -29 59 -29 129 0 63 6 96 29 157 l28 77 -36 90
c-36 90 -53 167 -43 195 5 12 22 14 89 12 46 -2 86 -4 89 -5z m209 -213 c51
-123 106 -257 121 -298 15 -41 42 -111 58 -155 38 -97 38 -117 5 -160 -25 -33
-151 -125 -171 -125 -6 0 -13 33 -17 73 -4 39 -11 97 -16 127 -5 30 -19 120
-30 200 -12 80 -35 224 -52 320 -16 96 -32 190 -35 208 -5 29 -3 32 19 32 22
0 32 -19 118 -222z m1860 194 c0 -4 -21 -36 -47 -71 -27 -35 -55 -73 -63 -85
-54 -79 -31 -72 -296 -89 -131 -8 -241 -13 -244 -10 -2 2 0 7 6 11 20 14 75
91 89 126 10 23 13 50 9 75 l-6 40 48 4 c98 7 504 7 504 -1z m-613 -44 c21
-17 15 -61 -12 -99 -39 -51 -91 -79 -151 -79 -70 0 -88 16 -85 78 1 24 69 97
104 112 27 12 126 4 144 -12z m-278 -35 c-12 -23 -19 -58 -19 -91 0 -43 5 -57
25 -78 14 -14 25 -27 25 -28 0 -2 -28 -7 -62 -11 -98 -10 -320 -46 -357 -56
-8 -3 -17 11 -25 41 -16 66 -10 87 35 116 22 14 49 40 60 58 19 32 23 34 142
56 67 12 127 24 132 25 6 2 22 4 36 4 l27 1 -19 -37z m-388 17 c31 -17 22 -37
-27 -66 -50 -30 -74 -70 -74 -127 0 -49 29 -139 53 -165 35 -38 115 -73 186
-83 106 -14 131 -19 131 -28 0 -11 -105 -57 -150 -66 -73 -15 -89 -31 -140
-139 -98 -204 -237 -346 -424 -431 -91 -42 -254 -92 -356 -110 -55 -10 -175
-19 -285 -22 -165 -5 -206 -2 -315 16 -214 38 -394 142 -454 263 -36 73 -34
96 10 114 50 21 75 13 244 -71 164 -83 234 -107 370 -131 157 -27 387 -4 562
55 256 87 392 223 473 474 37 112 37 130 -3 220 -45 102 -37 154 36 221 90 83
121 98 163 76z m1365 -10 l27 -11 -24 -27 c-14 -15 -42 -53 -63 -84 -45 -67
-129 -156 -160 -168 -12 -4 -161 -11 -331 -14 -171 -3 -390 -9 -487 -12 -110
-4 -178 -2 -178 3 0 12 110 28 330 48 91 8 201 19 245 25 74 9 307 14 384 8
25 -2 36 2 45 17 32 58 166 222 183 225 1 0 14 -5 29 -10z m10 -193 c11 -7 40
-34 64 -60 35 -39 41 -50 29 -58 -8 -5 -18 -9 -22 -9 -5 0 -54 -22 -110 -49
-103 -48 -192 -109 -272 -182 l-43 -40 -28 24 c-43 35 -78 51 -189 85 -112 34
-232 58 -379 76 -55 6 -101 16 -103 22 -3 8 119 13 399 17 237 4 419 11 441
17 29 9 53 29 103 91 36 43 71 79 77 79 7 -1 21 -6 33 -13z m-910 -281 c0 0
13 -64 28 -141 15 -77 36 -170 48 -208 22 -74 18 -120 -9 -115 -12 2 -28 45
-59 158 -23 85 -51 184 -62 220 -32 106 -33 103 16 94 20 -4 37 -7 38 -8z
m120 -108 c35 -108 47 -224 19 -196 -10 9 -43 142 -51 199 -9 66 9 64 32 -3z
m-239 -45 c44 -94 92 -242 96 -289 3 -39 -20 -41 -65 -4 -50 41 -94 135 -117
249 -18 91 -18 94 0 112 10 10 25 19 33 19 7 0 31 -39 53 -87z m526 52 c34
-14 78 -42 98 -61 31 -30 42 -35 66 -30 29 7 32 3 93 -89 162 -250 216 -354
239 -465 5 -25 12 -56 16 -70 3 -14 9 -41 12 -60 3 -19 9 -40 14 -45 4 -6 12
-39 18 -74 6 -35 27 -114 47 -174 40 -119 42 -180 9 -231 -9 -14 -14 -30 -11
-35 4 -5 -2 -10 -11 -9 -10 0 -37 -7 -61 -16 -24 -8 -98 -24 -165 -35 -144
-23 -149 -24 -297 -50 -139 -25 -240 -45 -260 -53 -8 -4 -28 -9 -45 -11 -37
-6 -178 -33 -262 -50 -34 -6 -65 -15 -69 -19 -4 -5 -20 -8 -35 -8 -66 0 -70
-15 -39 -121 11 -37 20 -71 19 -76 -2 -4 1 -25 5 -45 11 -51 21 -51 231 1 155
39 402 90 535 112 30 5 91 15 135 23 133 24 211 36 240 36 16 0 42 4 59 9 17
6 67 14 111 20 103 13 113 15 126 28 10 10 3 35 -51 173 -11 30 -33 91 -47
135 -14 44 -40 121 -58 170 -18 50 -36 104 -39 122 -4 17 -14 37 -22 43 -7 7
-11 16 -9 21 3 4 -4 37 -16 71 -20 61 -48 164 -49 182 0 5 7 3 16 -4 19 -17
72 -108 159 -275 38 -71 71 -134 76 -140 11 -16 214 -423 243 -489 15 -33 23
-63 18 -68 -11 -11 -270 -65 -642 -133 -289 -52 -371 -69 -690 -136 -202 -42
-349 -64 -360 -53 -8 9 -95 504 -88 508 2 2 41 11 88 21 111 24 136 33 123 46
-6 6 -30 4 -69 -5 -32 -8 -81 -16 -109 -18 -48 -3 -50 -2 -53 24 -3 23 1 28
25 34 86 20 228 56 235 60 5 3 6 9 3 13 -2 5 -60 -5 -127 -21 -67 -16 -129
-27 -136 -26 -10 2 -28 53 -52 143 -21 77 -84 277 -139 444 -56 168 -101 307
-101 311 0 3 21 28 46 56 26 27 72 87 102 133 50 76 56 82 68 66 7 -10 38 -97
69 -194 31 -97 60 -186 65 -199 16 -37 12 -51 -20 -67 -34 -18 -40 -45 -9 -45
43 0 165 33 176 47 17 21 10 30 -31 37 -19 4 -38 12 -44 19 -13 17 -89 242
-102 302 -6 28 -14 59 -19 70 -12 28 -51 153 -51 165 0 6 9 10 19 10 21 0 24
-8 41 -125 14 -91 61 -182 158 -306 101 -128 160 -157 213 -106 13 13 54 38
91 57 64 32 67 33 92 17 67 -44 134 -8 162 89 22 77 3 228 -52 422 -8 28 1 28
79 -3z m-94 -288 c16 -90 14 -131 -7 -157 -14 -18 -25 -22 -45 -16 -32 8 -34
29 -11 96 8 24 18 66 21 92 8 69 29 61 42 -15z m-2131 -46 c64 -45 28 -49 -73
-8 -75 30 -79 40 -14 35 36 -3 67 -12 87 -27z m1199 -377 c71 -212 71 -216 47
-210 -18 5 -31 0 -49 -18 -14 -14 -25 -32 -25 -41 0 -21 36 -55 60 -55 11 0
20 -6 20 -13 0 -20 -21 -37 -45 -37 -12 0 -25 -3 -28 -7 -11 -11 14 -33 38
-33 25 0 75 51 75 76 0 41 19 0 53 -114 48 -165 48 -164 -5 -156 -24 3 -56 10
-71 14 -31 10 -60 3 -54 -14 4 -13 93 -34 150 -35 20 -1 37 -4 38 -8 1 -5 2
-21 3 -38 1 -34 -9 -35 -92 -13 -30 8 -46 8 -54 0 -18 -18 -1 -29 64 -41 93
-18 96 -19 103 -52 4 -17 5 -33 2 -36 -3 -2 -117 23 -254 57 l-249 62 -17 231
c-17 227 -30 347 -48 456 -17 104 -17 105 59 134 37 15 94 45 127 66 33 22 65
40 70 40 6 1 43 -96 82 -215z m-1549 100 c25 -12 35 -26 47 -68 26 -89 117
-156 212 -156 46 0 106 32 140 75 21 26 36 35 59 35 17 0 33 -3 37 -6 11 -12
-22 -61 -65 -98 -51 -44 -99 -58 -200 -59 -91 0 -152 25 -198 81 -36 44 -78
163 -71 205 1 10 3 9 39 -9z m1136 -66 c7 -29 26 -163 26 -177 0 -33 -68 15
-92 64 -8 17 -18 44 -21 62 -5 27 -2 36 20 53 34 27 61 26 67 -2z m-1084 -232
c0 -2 -7 -7 -16 -10 -8 -3 -12 -2 -9 4 6 10 25 14 25 6z m1548 -64 c2 -7 -4
-15 -13 -18 -20 -8 -27 -1 -19 20 7 18 25 17 32 -2z m-184 -808 c94 -22 309
-78 395 -103 24 -7 48 -57 35 -70 -3 -3 -60 9 -127 27 -67 18 -195 52 -284 75
-161 41 -163 42 -163 70 0 34 4 34 144 1z m722 -296 c14 -28 38 -94 52 -147
25 -91 27 -108 26 -331 0 -241 -8 -316 -50 -443 -12 -37 -13 -52 -5 -60 8 -8
54 -12 124 -13 171 -2 283 -36 307 -95 16 -38 7 -57 -41 -81 -40 -21 -218 -25
-334 -7 -38 6 -109 16 -158 23 -48 7 -90 16 -93 19 -4 3 5 48 19 99 74 266 93
502 58 743 -12 83 -35 188 -51 235 -15 47 -26 87 -24 89 6 6 75 19 111 20 30
1 35 -4 59 -51z m-1333 -280 c45 -78 103 -331 119 -524 8 -99 8 -169 0 -266
-14 -167 -14 -167 89 -138 88 24 188 26 252 4 46 -15 107 -71 107 -98 0 -29
-48 -57 -116 -68 -92 -14 -520 -14 -556 1 l-28 10 21 53 c53 131 63 193 64
388 0 142 -4 207 -19 280 -28 143 -54 243 -76 295 -11 26 -20 52 -20 59 0 10
75 35 132 45 3 0 17 -18 31 -41z"/>
<path d="M720 6040 c-167 -20 -250 -35 -250 -45 0 -8 27 -7 93 2 50 8 136 17
190 22 54 4 103 13 109 19 13 13 -44 14 -142 2z"/>
<path d="M835 5919 c-33 -5 -80 -11 -105 -14 -99 -12 -254 -42 -236 -46 16 -3
20 -14 22 -58 2 -39 9 -60 26 -78 21 -22 23 -23 30 -6 4 10 4 48 1 84 l-5 67
36 4 c23 2 41 -1 48 -9 6 -7 7 -13 2 -13 -5 0 -9 -53 -9 -117 0 -72 -4 -118
-10 -118 -5 0 -15 -3 -21 -7 -16 -11 -65 -13 -91 -4 -19 6 -23 4 -23 -14 0
-11 6 -23 14 -26 13 -5 141 9 197 22 13 3 92 14 174 24 83 11 164 23 180 27
17 4 38 5 49 4 11 -2 17 2 14 11 -3 7 -20 13 -40 13 -20 0 -44 8 -55 18 -25
22 -33 22 -33 -1 0 -10 -5 -23 -12 -30 -16 -16 -57 -15 -64 1 -3 8 5 54 16
103 32 138 33 143 20 159 -13 16 -33 17 -125 4z m30 -29 c3 -5 11 -51 16 -102
6 -51 14 -100 19 -109 11 -22 -7 -49 -35 -49 -13 0 -36 13 -52 30 -15 17 -31
30 -35 30 -4 0 -6 -17 -5 -37 2 -36 0 -38 -28 -38 -28 0 -30 3 -31 40 -1 22
-9 74 -18 115 -21 96 -20 110 2 110 21 0 51 -32 69 -72 21 -47 36 -34 31 27
-3 34 0 56 6 59 20 8 55 6 61 -4z m-101 -6 c9 -3 16 -12 16 -20 0 -12 -4 -12
-20 -2 -30 19 -27 34 4 22z"/>
<path d="M948 5534 c-22 -23 -45 -29 -169 -50 -227 -38 -269 -46 -269 -55 0
-12 18 -11 102 6 40 9 102 20 138 25 36 6 88 14 115 19 28 5 54 5 59 1 11 -11
-28 -127 -60 -173 -14 -21 -43 -51 -64 -66 -22 -16 -37 -31 -34 -34 8 -7 100
21 146 44 74 38 158 151 158 213 0 46 10 56 54 57 22 0 50 4 61 9 13 6 -2 7
-42 3 -49 -4 -68 -2 -87 11 -37 24 -77 20 -108 -10z"/>
<path d="M1262 5889 c2 -7 10 -15 17 -17 8 -3 12 1 9 9 -2 7 -10 15 -17 17 -8
3 -12 -1 -9 -9z"/>
<path d="M2445 5090 c3 -5 8 -10 11 -10 2 0 4 5 4 10 0 6 -5 10 -11 10 -5 0
-7 -4 -4 -10z"/>
<path d="M2570 4633 c-8 -3 -26 -10 -39 -15 -39 -14 -16 -21 26 -8 41 13 66
31 43 29 -8 0 -22 -3 -30 -6z"/>
<path d="M2448 4594 c-3 -3 -18 -6 -32 -8 -15 -1 -25 -7 -24 -12 4 -11 41 -6
81 11 31 14 31 14 6 15 -14 0 -28 -3 -31 -6z"/>
<path d="M2665 4518 c-33 -11 -91 -28 -130 -38 -169 -44 -201 -53 -210 -61
-16 -16 21 -10 102 15 43 13 101 29 128 35 98 23 185 52 185 61 0 13 -4 12
-75 -12z"/>
<path d="M1061 4333 c-22 -81 -33 -144 -27 -158 10 -26 36 -17 43 15 4 25 10
30 33 30 15 0 33 -7 40 -15 17 -20 40 -19 40 3 0 9 -17 49 -38 87 -46 86 -75
98 -91 38z m49 -59 c0 -8 -5 -12 -10 -9 -6 4 -8 11 -5 16 9 14 15 11 15 -7z"/>
<path d="M900 4331 c-43 -7 -48 -35 -7 -39 28 -3 29 -5 27 -60 -3 -82 -2 -92
14 -92 10 0 16 17 21 58 3 31 8 71 11 89 6 39 -14 52 -66 44z"/>
<path d="M748 4299 c-26 -15 -22 -27 10 -31 27 -3 27 -4 27 -73 0 -56 3 -70
15 -70 11 0 17 17 22 64 4 35 9 70 12 78 15 37 -41 58 -86 32z"/>
<path d="M635 4283 c-48 -12 -55 -43 -10 -43 23 0 24 -1 18 -71 -6 -66 -5 -71
13 -67 16 3 20 16 27 81 12 106 8 113 -48 100z"/>
<path d="M1719 2516 c-3 -3 -89 -12 -192 -20 -102 -8 -190 -16 -194 -19 -4 -3
-156 -15 -338 -27 -305 -22 -369 -31 -348 -51 8 -7 199 5 558 37 99 9 227 20
285 25 190 16 291 31 287 43 -4 11 -49 21 -58 12z"/>
<path d="M1765 2424 c-395 -40 -556 -55 -905 -84 -358 -29 -430 -39 -387 -56
23 -8 733 47 1032 81 77 9 199 22 270 30 72 7 138 16 147 20 21 9 14 26 -10
24 -9 -1 -75 -8 -147 -15z"/>
<path d="M1502 2249 c-45 -33 -55 -59 -22 -59 11 0 20 7 20 15 0 8 9 19 21 26
20 10 21 9 14 -20 -5 -26 -4 -30 9 -25 9 3 16 10 16 14 0 12 64 50 84 50 9 0
16 -7 16 -15 0 -8 11 -17 25 -21 34 -9 117 8 123 25 3 9 -2 11 -14 8 -11 -3
-36 -8 -57 -12 -33 -5 -38 -3 -47 20 -11 29 -37 32 -79 10 -26 -13 -30 -13
-41 0 -17 20 -20 20 -68 -16z"/>
<path d="M1008 2203 c-18 -32 -34 -61 -36 -65 -6 -14 37 -8 74 9 34 17 36 17
50 -1 11 -16 18 -17 37 -9 13 6 35 9 49 6 27 -5 76 16 97 41 20 24 32 19 25
-9 -5 -21 -3 -25 14 -25 31 0 52 11 52 26 0 8 -6 11 -15 8 -12 -5 -15 3 -15
35 0 23 -3 41 -6 41 -4 0 -32 -21 -62 -47 -50 -43 -61 -48 -104 -48 -31 0 -50
5 -53 14 -4 9 -16 12 -40 8 -38 -6 -42 -2 -20 27 19 25 19 46 1 46 -8 0 -29
-26 -48 -57z"/>
<path d="M595 2185 c-27 -26 -32 -64 -13 -83 16 -16 63 -15 98 3 27 14 30 14
40 -6 8 -14 17 -18 28 -13 9 4 28 8 42 9 46 4 100 17 100 25 0 11 -94 20 -104
9 -6 -5 -18 -9 -28 -9 -15 0 -17 5 -12 25 8 33 -7 32 -58 -5 -67 -49 -132 -24
-78 30 17 17 24 19 35 10 20 -16 40 -3 24 16 -17 21 -47 17 -74 -11z"/>
<path d="M1620 2014 c-104 -20 -166 -65 -191 -137 -22 -63 -34 -66 -79 -20
-21 23 -56 47 -77 55 -47 16 -201 16 -261 -1 -54 -15 -107 -62 -122 -107 -8
-23 -20 -36 -36 -40 -41 -11 -54 1 -54 51 0 68 -21 84 -98 74 -47 -5 -71 -14
-100 -37 -53 -42 -65 -59 -58 -78 5 -14 11 -13 40 10 44 33 56 33 56 -3 0 -25
-5 -30 -32 -34 -74 -12 -168 -8 -190 7 -22 16 -23 15 -40 -56 -10 -40 -22
-106 -28 -146 -5 -40 -14 -81 -19 -90 -4 -9 -11 -34 -14 -54 -7 -44 -21 -41
153 -39 108 2 267 16 405 36 44 6 52 8 240 29 72 9 148 20 170 25 22 5 74 15
115 22 41 6 98 17 125 24 28 8 93 21 145 30 52 9 118 23 145 30 28 7 70 16 95
20 25 3 62 13 83 22 l37 16 0 169 0 169 -37 -7 c-21 -4 -45 -10 -53 -14 -17
-9 -60 5 -60 19 0 5 -19 19 -43 30 -43 21 -165 35 -217 25z m188 -64 c80 -49
76 -173 -8 -244 -52 -43 -55 -38 -55 97 0 80 -5 130 -13 145 -12 20 -11 22 15
22 15 0 43 -9 61 -20z m-138 -8 c18 -15 22 -25 16 -46 -6 -24 -11 -27 -39 -24
-36 3 -47 31 -27 67 13 26 22 26 50 3z m-102 -124 c1 -73 5 -141 8 -150 9 -29
-30 -22 -63 11 -83 82 -52 258 47 270 3 1 6 -59 8 -131z m-300 42 c48 -22 64
-52 64 -116 0 -70 -46 -130 -103 -137 -20 -2 -21 2 -22 118 -1 66 -6 128 -11
138 -11 23 16 22 72 -3z m-225 -127 c2 -76 3 -141 1 -145 -3 -4 -18 -2 -35 4
-55 19 -96 143 -69 209 13 29 62 69 86 69 7 0 13 -47 17 -137z m95 117 c31
-29 28 -56 -5 -63 -44 -8 -65 21 -47 67 8 22 26 20 52 -4z m-384 -77 c3 -43 9
-108 12 -145 l7 -68 -30 0 -30 0 -12 100 c-13 114 -14 174 -4 183 3 4 16 7 28
7 20 0 23 -6 29 -77z m126 -277 c0 -3 -4 -8 -10 -11 -5 -3 -10 -1 -10 4 0 6 5
11 10 11 6 0 10 -2 10 -4z"/>
<path d="M3570 4263 c-60 -4 -84 -18 -60 -33 17 -11 73 -13 119 -4 21 5 31 12
31 25 0 12 -6 18 -17 17 -10 -1 -43 -3 -73 -5z"/>
<path d="M3485 2908 c-23 -65 -33 -188 -15 -188 6 0 10 8 10 19 0 21 15 35 47
45 19 6 25 2 33 -20 17 -43 34 -16 21 32 -24 84 -82 152 -96 112z m43 -71 c3
-22 -1 -27 -17 -27 -21 0 -26 15 -15 45 9 23 29 13 32 -18z"/>
<path d="M3327 2883 c-15 -14 -6 -23 24 -23 l32 0 -7 -69 c-5 -44 -3 -72 3
-75 6 -4 13 3 15 16 15 68 25 141 20 149 -6 10 -77 12 -87 2z"/>
<path d="M3220 2852 c0 -6 12 -13 26 -16 18 -5 24 -12 20 -24 -3 -9 -6 -41 -7
-71 -4 -81 17 -75 25 6 3 37 8 77 9 88 2 16 -5 21 -35 23 -21 2 -38 -1 -38 -6z"/>
<path d="M3085 2830 c-7 -11 6 -17 45 -22 24 -3 25 -7 28 -70 4 -98 22 -84 22
17 l0 85 -44 0 c-25 0 -48 -5 -51 -10z"/>
<path d="M2987 2753 c-6 -53 0 -65 34 -67 16 -1 25 -9 29 -25 3 -14 12 -27 19
-29 11 -4 13 7 7 59 -4 35 -10 67 -12 71 -11 17 -24 7 -24 -17 0 -14 -4 -25
-9 -25 -11 0 -21 25 -21 56 0 43 -17 25 -23 -23z"/>
<path d="M2861 2758 c-4 -12 -6 -30 -3 -40 4 -19 36 -33 51 -23 17 10 23 -16
11 -46 -15 -35 -4 -52 16 -25 21 29 18 119 -4 139 -27 24 -61 21 -71 -5z m49
-17 c0 -6 -4 -13 -10 -16 -5 -3 -10 1 -10 9 0 9 5 16 10 16 6 0 10 -4 10 -9z"/>
<path d="M2766 2747 c-12 -9 -17 -23 -14 -47 3 -31 7 -35 35 -38 55 -5 72 -56
22 -64 -12 -2 -24 -9 -27 -15 -6 -20 53 -16 71 5 34 37 12 83 -46 97 -38 10
-42 21 -12 41 25 16 25 34 1 34 -7 0 -20 -6 -30 -13z"/>
<path d="M2658 2733 c-35 -5 -37 -23 -3 -23 21 0 25 -5 25 -29 0 -51 13 -121
22 -121 12 0 5 173 -7 175 -5 1 -22 0 -37 -2z"/>
<path d="M3706 2645 c-105 -40 -135 -139 -73 -234 32 -48 79 -66 149 -58 79
10 129 43 150 100 18 47 18 49 -4 104 -13 31 -35 65 -49 75 -34 26 -123 32
-173 13z m66 -52 c25 -31 39 -74 45 -140 6 -63 6 -63 -20 -63 -19 0 -31 8 -42
31 -20 37 -48 166 -40 180 10 15 41 10 57 -8z"/>
<path d="M3355 2565 c-59 -21 -85 -56 -85 -114 0 -57 35 -130 71 -148 58 -30
193 -2 218 45 17 32 13 112 -8 158 -31 67 -107 90 -196 59z m65 -45 c22 -12
43 -97 38 -155 -2 -32 -7 -40 -23 -40 -23 0 -49 66 -61 154 -6 44 -4 51 10 51
10 0 26 -4 36 -10z"/>
<path d="M3135 2510 c-28 -11 -90 -78 -81 -87 4 -4 16 -2 27 5 17 11 20 9 28
-10 4 -13 11 -41 15 -63 4 -22 9 -48 12 -57 4 -13 -2 -21 -20 -28 -14 -5 -26
-14 -26 -20 0 -13 7 -13 77 4 32 8 70 17 86 20 30 7 37 26 8 26 -15 0 -22 17
-41 98 -12 53 -24 103 -26 110 -4 14 -29 15 -59 2z"/>
<path d="M2291 2709 c-48 -75 -55 -99 -30 -99 6 0 18 9 27 20 27 31 62 17 62
-26 0 -39 15 -52 29 -25 18 32 14 177 -5 195 -8 9 -19 16 -24 16 -4 0 -31 -36
-59 -81z m55 -26 c-10 -10 -19 5 -10 18 6 11 8 11 12 0 2 -7 1 -15 -2 -18z"/>
<path d="M6553 6032 c-6 -4 -31 -50 -56 -104 -77 -160 -203 -297 -382 -416
-87 -57 -252 -136 -334 -158 -46 -13 -61 -22 -61 -36 0 -41 180 -278 252 -331
26 -19 33 -20 102 -9 150 23 392 121 528 213 136 93 230 224 262 366 24 110
22 121 -32 178 -26 28 -91 105 -145 172 -98 121 -115 137 -134 125z m112 -192
c38 -47 89 -109 113 -138 l46 -53 -13 -62 c-26 -127 -105 -246 -215 -325 l-46
-33 0 79 c0 141 -42 225 -140 278 -28 15 -50 32 -50 39 0 6 14 24 31 41 45 42
112 139 150 216 26 53 36 65 45 55 6 -6 42 -50 79 -97z m-261 -311 c81 -47
114 -175 74 -282 -21 -55 -108 -45 -169 20 -42 44 -59 88 -59 149 0 116 66
165 154 113z m-205 -128 c12 -107 43 -160 129 -218 l63 -42 -38 -16 c-67 -29
-206 -73 -269 -86 -59 -12 -63 -12 -91 11 -54 46 -193 217 -193 240 0 3 24 14
53 25 77 27 204 89 272 133 33 22 61 38 62 37 1 0 7 -38 12 -84z"/>
<path d="M6513 5680 c-56 -67 -35 -99 25 -37 32 33 43 77 20 77 -7 0 -28 -18
-45 -40z"/>
<path d="M6530 4790 c-118 -107 -237 -172 -485 -263 -22 -8 -76 -20 -120 -27
-167 -26 -160 -23 -163 -51 -2 -15 11 -86 29 -160 17 -74 36 -159 41 -189 6
-30 16 -61 23 -69 10 -10 48 -14 157 -14 130 0 154 3 263 31 260 69 474 213
557 376 l20 38 -23 62 c-35 93 -111 216 -168 269 -27 26 -56 47 -63 47 -7 0
-38 -23 -68 -50z m120 -67 c48 -57 135 -227 132 -261 -5 -56 -161 -203 -285
-268 -57 -30 -69 -33 -62 -18 5 11 9 60 9 109 -1 104 -23 175 -79 249 l-35 45
61 36 c66 39 166 113 188 139 20 23 25 21 71 -31z m-331 -221 c54 -54 98 -222
71 -273 -32 -60 -81 -65 -133 -13 -64 64 -86 178 -48 253 17 33 48 58 74 60 5
1 21 -11 36 -27z m-174 -110 c0 -74 4 -106 19 -136 23 -49 93 -126 114 -126
14 0 15 -2 1 -15 -25 -25 -217 -50 -307 -39 -76 9 -77 9 -80 39 -2 17 -16 82
-32 145 -15 63 -31 127 -34 141 -6 26 -5 26 62 32 37 4 103 18 147 31 118 35
110 41 110 -72z"/>
<path d="M6497 4572 c-43 -32 -50 -47 -32 -62 10 -8 21 -4 49 21 59 51 44 88
-17 41z"/>
<path d="M5550 4749 c-121 -68 -148 -81 -235 -113 -76 -29 -212 -64 -403 -107
-72 -16 -282 -31 -387 -27 l-100 3 -6 -105 c-3 -58 -16 -147 -28 -198 -22 -89
-22 -94 -6 -112 31 -34 168 -68 347 -86 154 -15 178 -15 317 0 155 17 306 58
414 112 58 30 69 53 117 234 41 160 46 184 59 304 16 137 6 148 -89 95z m30
-86 c0 -84 -88 -441 -117 -474 -7 -9 -46 -28 -86 -43 -39 -15 -81 -32 -92 -36
-32 -15 -188 -51 -193 -45 -3 3 6 18 21 33 39 41 80 139 85 204 6 79 -4 120
-38 163 -17 21 -30 41 -30 45 0 5 24 14 53 20 86 21 235 78 311 120 39 21 74
39 79 39 4 1 7 -11 7 -26z m-660 -198 c0 -3 -11 -33 -25 -65 -51 -121 -43
-239 22 -307 18 -20 33 -38 33 -40 0 -3 -57 -2 -127 2 -126 6 -357 45 -375 63
-6 6 -3 40 6 90 9 45 18 117 22 159 l6 78 137 3 c75 2 161 7 191 11 69 11 110
13 110 6z m188 -29 c36 -34 37 -36 37 -108 0 -87 -31 -159 -85 -195 -46 -32
-73 -29 -109 12 -29 33 -31 41 -31 108 0 88 32 164 83 196 44 28 62 26 105
-13z"/>
<path d="M5330 4486 c-53 -15 -61 -39 -14 -44 40 -4 107 23 102 40 -6 17 -34
18 -88 4z"/>
</g>
</svg>
